<svg width="253" height="101" viewBox="0 0 253 101" fill="none" xmlns="http://www.w3.org/2000/svg">
<path d="M0 21H68L78 36.5H8L0 21Z" fill="#0076C0"/>
<path d="M32 80H100L110 95.5H40L32 80Z" fill="#0076C0"/>
<path d="M17 50H53.6154L61.5 66H25L17 50Z" fill="#0076C0"/>
<path d="M107.5 25H126L98 74H80.5L107.5 25Z" fill="#0076C0"/>
<path d="M80.5 41H62L80.5 74H98.5L80.5 41Z" fill="#0076C0"/>
<rect x="130" y="24" width="13" height="10" fill="#0076C0"/>
<rect x="130" y="38" width="13" height="35" fill="#0076C0"/>
<path d="M175.016 72.666C170.777 72.666 167.367 72.5247 164.783 72.2422C162.22 71.9596 160.272 71.4349 158.94 70.668C157.629 69.901 156.741 68.8112 156.276 67.3984C155.832 65.9857 155.61 64.1491 155.61 61.8887H161.181C161.181 63.1602 161.271 64.1895 161.453 64.9766C161.635 65.7435 162.149 66.3389 162.997 66.7627C163.845 67.1663 165.217 67.4489 167.114 67.6104C169.032 67.7516 171.716 67.8223 175.167 67.8223C178.82 67.8223 181.656 67.7516 183.674 67.6104C185.712 67.4489 187.175 67.1663 188.063 66.7627C188.951 66.3389 189.486 65.7334 189.668 64.9463C189.87 64.1592 189.971 63.1198 189.971 61.8281C189.971 60.2539 189.829 59.0732 189.547 58.2861C189.264 57.499 188.598 56.9743 187.549 56.7119C186.499 56.4294 184.824 56.278 182.523 56.2578L168.658 56.1064C165.086 56.0661 162.361 55.7633 160.484 55.1982C158.607 54.6331 157.326 53.6442 156.64 52.2314C155.953 50.7985 155.61 48.7702 155.61 46.1465C155.61 43.7044 155.984 41.8174 156.73 40.4854C157.497 39.1533 158.688 38.2048 160.303 37.6396C161.917 37.0745 164.016 36.7415 166.6 36.6406C169.183 36.5195 172.301 36.459 175.954 36.459C180.253 36.459 183.664 36.5902 186.187 36.8525C188.729 37.1149 190.627 37.6094 191.878 38.3359C193.149 39.0625 193.977 40.1221 194.36 41.5146C194.764 42.887 194.966 44.6833 194.966 46.9033H189.396C189.396 45.5915 189.305 44.5622 189.123 43.8154C188.941 43.0485 188.447 42.4935 187.64 42.1504C186.853 41.7871 185.561 41.555 183.765 41.4541C181.989 41.3532 179.486 41.3027 176.257 41.3027C172.584 41.3027 169.728 41.3431 167.689 41.4238C165.651 41.5046 164.178 41.6963 163.27 41.999C162.361 42.3018 161.806 42.7861 161.604 43.4521C161.403 44.098 161.302 44.9961 161.302 46.1465C161.302 47.3171 161.362 48.2454 161.483 48.9316C161.625 49.5977 161.978 50.1022 162.543 50.4453C163.108 50.7884 164.026 51.0205 165.298 51.1416C166.59 51.2425 168.386 51.3031 170.687 51.3232L182.645 51.4443C186.237 51.4847 188.962 51.7874 190.818 52.3525C192.695 52.8975 193.967 53.9167 194.633 55.4102C195.319 56.8835 195.662 59.0228 195.662 61.8281C195.662 64.3509 195.289 66.3389 194.542 67.792C193.815 69.2451 192.645 70.3249 191.03 71.0312C189.416 71.7174 187.286 72.1615 184.643 72.3633C182.019 72.5651 178.81 72.666 175.016 72.666Z" fill="#0076C0"/>
<path d="M227.668 72.666C223.49 72.666 220.039 72.444 217.314 72C214.61 71.5762 212.592 70.6276 211.26 69.1543C209.948 67.681 209.292 65.3903 209.292 62.2822C209.292 59.1136 209.908 56.7926 211.139 55.3193C212.39 53.8258 214.358 52.8571 217.042 52.4131C219.746 51.9691 223.288 51.7471 227.668 51.7471C231.22 51.7471 234.197 51.8278 236.599 51.9893C239 52.1507 241.15 52.4333 243.047 52.8369C243.007 50.1527 242.825 48.0436 242.502 46.5098C242.179 44.9557 241.574 43.8053 240.686 43.0586C239.798 42.3118 238.496 41.8376 236.78 41.6357C235.085 41.4137 232.825 41.3027 229.999 41.3027C226.77 41.3027 224.237 41.3734 222.4 41.5146C220.584 41.6559 219.262 41.9082 218.435 42.2715C217.607 42.6348 217.082 43.1595 216.86 43.8457C216.659 44.5319 216.558 45.4199 216.558 46.5098H210.745C210.745 44.3301 211.038 42.5742 211.623 41.2422C212.229 39.9102 213.248 38.901 214.681 38.2148C216.114 37.5286 218.071 37.0645 220.554 36.8223C223.056 36.5801 226.205 36.459 229.999 36.459C234.076 36.459 237.355 36.7214 239.838 37.2461C242.34 37.7708 244.238 38.7194 245.529 40.0918C246.841 41.444 247.719 43.3411 248.163 45.7832C248.627 48.2253 248.859 51.3737 248.859 55.2285V72H243.047V69.6084C242.361 70.335 241.412 70.9202 240.201 71.3643C238.99 71.8083 237.376 72.1312 235.357 72.333C233.359 72.555 230.796 72.666 227.668 72.666ZM227.668 67.9434C231.119 67.9434 233.874 67.903 235.933 67.8223C237.991 67.7415 239.525 67.5195 240.534 67.1562C241.563 66.793 242.24 66.2077 242.562 65.4004C242.885 64.5931 243.047 63.4629 243.047 62.0098V56.6514L227.668 56.4697C224.943 56.4294 222.743 56.4697 221.068 56.5908C219.413 56.6917 218.152 56.9339 217.284 57.3174C216.416 57.6807 215.831 58.266 215.528 59.0732C215.246 59.8604 215.104 60.93 215.104 62.2822C215.104 63.5941 215.246 64.6335 215.528 65.4004C215.831 66.1673 216.416 66.7324 217.284 67.0957C218.152 67.459 219.413 67.6911 221.068 67.792C222.743 67.8929 224.943 67.9434 227.668 67.9434Z" fill="#0076C0"/>
<path d="M129.436 95V78.5H131.498V95H129.436ZM141.929 95.2363C140.425 95.2363 139.215 95.1862 138.298 95.0859C137.388 94.9857 136.697 94.7995 136.225 94.5273C135.759 94.2552 135.444 93.8685 135.279 93.3672C135.122 92.8659 135.043 92.2142 135.043 91.4121H137.02C137.02 91.8633 137.052 92.2285 137.116 92.5078C137.181 92.7799 137.363 92.9912 137.664 93.1416C137.965 93.2848 138.452 93.3851 139.125 93.4424C139.805 93.4925 140.758 93.5176 141.982 93.5176C143.279 93.5176 144.285 93.4925 145.001 93.4424C145.724 93.3851 146.243 93.2848 146.559 93.1416C146.874 92.9912 147.063 92.7764 147.128 92.4971C147.2 92.2178 147.235 91.849 147.235 91.3906C147.235 90.832 147.185 90.4131 147.085 90.1338C146.985 89.8545 146.748 89.6683 146.376 89.5752C146.004 89.4749 145.409 89.4212 144.593 89.4141L139.673 89.3604C138.405 89.346 137.438 89.2386 136.772 89.0381C136.106 88.8376 135.652 88.4867 135.408 87.9854C135.165 87.4769 135.043 86.7572 135.043 85.8262C135.043 84.9596 135.175 84.29 135.44 83.8174C135.713 83.3447 136.135 83.0081 136.708 82.8076C137.281 82.6071 138.026 82.4889 138.942 82.4531C139.859 82.4102 140.965 82.3887 142.262 82.3887C143.787 82.3887 144.997 82.4352 145.893 82.5283C146.795 82.6214 147.468 82.7969 147.912 83.0547C148.363 83.3125 148.657 83.6885 148.793 84.1826C148.936 84.6696 149.008 85.307 149.008 86.0947H147.031C147.031 85.6292 146.999 85.264 146.935 84.999C146.87 84.7269 146.695 84.5299 146.408 84.4082C146.129 84.2793 145.671 84.1969 145.033 84.1611C144.403 84.1253 143.515 84.1074 142.369 84.1074C141.066 84.1074 140.052 84.1217 139.329 84.1504C138.606 84.179 138.083 84.2471 137.761 84.3545C137.438 84.4619 137.242 84.6338 137.17 84.8701C137.098 85.0993 137.062 85.418 137.062 85.8262C137.062 86.2415 137.084 86.571 137.127 86.8145C137.177 87.0508 137.302 87.2298 137.503 87.3516C137.703 87.4733 138.029 87.5557 138.48 87.5986C138.939 87.6344 139.576 87.6559 140.393 87.6631L144.636 87.7061C145.91 87.7204 146.877 87.8278 147.536 88.0283C148.202 88.2217 148.653 88.5833 148.89 89.1133C149.133 89.6361 149.255 90.3952 149.255 91.3906C149.255 92.2858 149.122 92.9912 148.857 93.5068C148.6 94.0225 148.184 94.4056 147.611 94.6562C147.038 94.8997 146.283 95.0573 145.345 95.1289C144.414 95.2005 143.275 95.2363 141.929 95.2363ZM159.009 95.2363C157.505 95.2363 156.295 95.1862 155.378 95.0859C154.468 94.9857 153.777 94.7995 153.305 94.5273C152.839 94.2552 152.524 93.8685 152.359 93.3672C152.202 92.8659 152.123 92.2142 152.123 91.4121H154.1C154.1 91.8633 154.132 92.2285 154.196 92.5078C154.261 92.7799 154.443 92.9912 154.744 93.1416C155.045 93.2848 155.532 93.3851 156.205 93.4424C156.885 93.4925 157.838 93.5176 159.062 93.5176C160.359 93.5176 161.365 93.4925 162.081 93.4424C162.804 93.3851 163.324 93.2848 163.639 93.1416C163.954 92.9912 164.144 92.7764 164.208 92.4971C164.28 92.2178 164.315 91.849 164.315 91.3906C164.315 90.832 164.265 90.4131 164.165 90.1338C164.065 89.8545 163.828 89.6683 163.456 89.5752C163.084 89.4749 162.489 89.4212 161.673 89.4141L156.753 89.3604C155.485 89.346 154.519 89.2386 153.853 89.0381C153.187 88.8376 152.732 88.4867 152.488 87.9854C152.245 87.4769 152.123 86.7572 152.123 85.8262C152.123 84.9596 152.256 84.29 152.521 83.8174C152.793 83.3447 153.215 83.0081 153.788 82.8076C154.361 82.6071 155.106 82.4889 156.022 82.4531C156.939 82.4102 158.046 82.3887 159.342 82.3887C160.867 82.3887 162.077 82.4352 162.973 82.5283C163.875 82.6214 164.548 82.7969 164.992 83.0547C165.443 83.3125 165.737 83.6885 165.873 84.1826C166.016 84.6696 166.088 85.307 166.088 86.0947H164.111C164.111 85.6292 164.079 85.264 164.015 84.999C163.95 84.7269 163.775 84.5299 163.488 84.4082C163.209 84.2793 162.751 84.1969 162.113 84.1611C161.483 84.1253 160.595 84.1074 159.449 84.1074C158.146 84.1074 157.132 84.1217 156.409 84.1504C155.686 84.179 155.163 84.2471 154.841 84.3545C154.519 84.4619 154.322 84.6338 154.25 84.8701C154.178 85.0993 154.143 85.418 154.143 85.8262C154.143 86.2415 154.164 86.571 154.207 86.8145C154.257 87.0508 154.382 87.2298 154.583 87.3516C154.784 87.4733 155.109 87.5557 155.561 87.5986C156.019 87.6344 156.656 87.6559 157.473 87.6631L161.716 87.7061C162.991 87.7204 163.957 87.8278 164.616 88.0283C165.282 88.2217 165.733 88.5833 165.97 89.1133C166.213 89.6361 166.335 90.3952 166.335 91.3906C166.335 92.2858 166.202 92.9912 165.938 93.5068C165.68 94.0225 165.264 94.4056 164.691 94.6562C164.118 94.8997 163.363 95.0573 162.425 95.1289C161.494 95.2005 160.355 95.2363 159.009 95.2363ZM175.455 95.2363C173.837 95.2363 172.562 95.0609 171.631 94.71C170.7 94.3519 170.037 93.7575 169.644 92.9268C169.25 92.0889 169.053 90.9466 169.053 89.5V82.625H171.126V89.5C171.126 90.3164 171.19 90.9896 171.319 91.5195C171.455 92.0423 171.692 92.4505 172.028 92.7441C172.365 93.0306 172.838 93.2311 173.446 93.3457C174.062 93.4603 174.854 93.5176 175.82 93.5176C177.253 93.5176 178.377 93.3994 179.193 93.1631C180.01 92.9268 180.586 92.5579 180.923 92.0566C181.267 91.5482 181.438 90.8893 181.438 90.0801V82.625H183.501V95H181.438V93.3564C181.138 93.7718 180.758 94.1191 180.3 94.3984C179.841 94.6777 179.229 94.8854 178.463 95.0215C177.697 95.1647 176.694 95.2363 175.455 95.2363ZM192.836 95.2363C191.354 95.2363 190.129 95.1576 189.162 95C188.202 94.8496 187.486 94.513 187.014 93.9902C186.548 93.4674 186.315 92.6546 186.315 91.5518C186.315 90.4274 186.534 89.6038 186.971 89.0811C187.415 88.5511 188.113 88.2074 189.065 88.0498C190.025 87.8923 191.282 87.8135 192.836 87.8135C194.096 87.8135 195.153 87.8421 196.005 87.8994C196.857 87.9567 197.62 88.057 198.293 88.2002C198.279 87.2477 198.214 86.4993 198.1 85.9551C197.985 85.4036 197.77 84.9954 197.455 84.7305C197.14 84.4655 196.678 84.2972 196.069 84.2256C195.468 84.1468 194.666 84.1074 193.663 84.1074C192.517 84.1074 191.618 84.1325 190.967 84.1826C190.322 84.2327 189.853 84.3223 189.56 84.4512C189.266 84.5801 189.08 84.7663 189.001 85.0098C188.929 85.2533 188.894 85.5684 188.894 85.9551H186.831C186.831 85.1816 186.935 84.5586 187.143 84.0859C187.357 83.6133 187.719 83.2552 188.228 83.0117C188.736 82.7682 189.431 82.6035 190.312 82.5176C191.2 82.4316 192.317 82.3887 193.663 82.3887C195.11 82.3887 196.273 82.4818 197.154 82.668C198.042 82.8542 198.715 83.1908 199.174 83.6777C199.639 84.1576 199.951 84.8307 200.108 85.6973C200.273 86.5638 200.355 87.681 200.355 89.0488V95H198.293V94.1514C198.049 94.4092 197.713 94.6169 197.283 94.7744C196.854 94.932 196.281 95.0465 195.564 95.1182C194.855 95.1969 193.946 95.2363 192.836 95.2363ZM192.836 93.5605C194.061 93.5605 195.038 93.5462 195.769 93.5176C196.499 93.4889 197.043 93.4102 197.401 93.2812C197.767 93.1523 198.007 92.9447 198.121 92.6582C198.236 92.3717 198.293 91.9707 198.293 91.4551V89.5537L192.836 89.4893C191.869 89.4749 191.089 89.4893 190.494 89.5322C189.907 89.568 189.459 89.654 189.151 89.79C188.843 89.9189 188.636 90.1266 188.528 90.4131C188.428 90.6924 188.378 91.0719 188.378 91.5518C188.378 92.0173 188.428 92.3861 188.528 92.6582C188.636 92.9303 188.843 93.1309 189.151 93.2598C189.459 93.3887 189.907 93.471 190.494 93.5068C191.089 93.5426 191.869 93.5605 192.836 93.5605ZM203.105 95V82.625H205.168V84.2686C205.476 83.8532 205.855 83.5059 206.307 83.2266C206.765 82.9473 207.374 82.7396 208.133 82.6035C208.899 82.4603 209.902 82.3887 211.141 82.3887C212.759 82.3887 214.034 82.5462 214.965 82.8613C215.903 83.1764 216.569 83.7386 216.963 84.5479C217.357 85.3571 217.554 86.5029 217.554 87.9854V95H215.48V87.9854C215.48 87.1403 215.409 86.46 215.266 85.9443C215.122 85.4287 214.875 85.0384 214.524 84.7734C214.181 84.5085 213.704 84.333 213.096 84.2471C212.487 84.154 211.714 84.1074 210.775 84.1074C209.343 84.1074 208.219 84.2256 207.402 84.4619C206.586 84.6982 206.009 85.0706 205.673 85.5791C205.336 86.0804 205.168 86.7357 205.168 87.5449V95H203.105ZM227.501 95.2363C226.119 95.2363 224.944 95.1647 223.978 95.0215C223.011 94.8854 222.23 94.6025 221.636 94.1729C221.041 93.736 220.608 93.0843 220.336 92.2178C220.064 91.3512 219.928 90.1947 219.928 88.748C219.928 87.3444 220.064 86.2201 220.336 85.375C220.608 84.5299 221.041 83.8926 221.636 83.4629C222.23 83.0332 223.011 82.7467 223.978 82.6035C224.944 82.4603 226.119 82.3887 227.501 82.3887C229.155 82.3887 230.516 82.4854 231.583 82.6787C232.657 82.8649 233.452 83.2516 233.968 83.8389C234.483 84.4261 234.741 85.3213 234.741 86.5244H232.765C232.765 85.8298 232.621 85.3105 232.335 84.9668C232.049 84.623 231.526 84.3939 230.767 84.2793C230.007 84.1647 228.919 84.1074 227.501 84.1074C226.226 84.1074 225.216 84.1611 224.472 84.2686C223.727 84.376 223.179 84.5872 222.828 84.9023C222.477 85.2103 222.248 85.6722 222.141 86.2881C222.04 86.904 221.99 87.724 221.99 88.748C221.99 89.8079 222.04 90.6566 222.141 91.2939C222.248 91.9313 222.477 92.4111 222.828 92.7334C223.179 93.0485 223.727 93.2598 224.472 93.3672C225.216 93.4674 226.226 93.5176 227.501 93.5176C228.582 93.5176 229.467 93.4889 230.154 93.4316C230.842 93.3672 231.375 93.2454 231.755 93.0664C232.134 92.8802 232.396 92.6152 232.539 92.2715C232.689 91.9206 232.765 91.4551 232.765 90.875H234.741C234.741 91.8346 234.598 92.6045 234.312 93.1846C234.025 93.7646 233.588 94.2015 233.001 94.4951C232.414 94.7887 231.662 94.9857 230.745 95.0859C229.836 95.1862 228.754 95.2363 227.501 95.2363ZM251.327 91.3262C251.327 92.25 251.188 92.9769 250.908 93.5068C250.636 94.0368 250.217 94.4235 249.651 94.667C249.086 94.9105 248.362 95.0645 247.481 95.1289C246.608 95.2005 245.566 95.2363 244.355 95.2363C242.973 95.2363 241.799 95.1647 240.832 95.0215C239.872 94.8854 239.095 94.6025 238.501 94.1729C237.914 93.736 237.484 93.0843 237.212 92.2178C236.947 91.3512 236.814 90.1947 236.814 88.748C236.814 87.3444 236.943 86.2201 237.201 85.375C237.466 84.5299 237.892 83.8926 238.479 83.4629C239.067 83.0332 239.837 82.7467 240.789 82.6035C241.749 82.4603 242.92 82.3887 244.302 82.3887C245.884 82.3887 247.195 82.4997 248.233 82.7217C249.272 82.9437 250.045 83.3662 250.554 83.9893C251.069 84.6123 251.327 85.5254 251.327 86.7285V89.3818H238.888C238.895 90.2985 238.959 91.0326 239.081 91.584C239.203 92.1354 239.446 92.5508 239.812 92.8301C240.177 93.1094 240.721 93.2956 241.444 93.3887C242.175 93.4746 243.145 93.5176 244.355 93.5176C245.444 93.5176 246.321 93.4961 246.987 93.4531C247.66 93.4102 248.169 93.3171 248.513 93.1738C248.864 93.0234 249.1 92.8014 249.222 92.5078C249.343 92.2142 249.404 91.8203 249.404 91.3262H251.327ZM244.302 84.1074C243.134 84.1074 242.193 84.1504 241.477 84.2363C240.768 84.3223 240.227 84.4906 239.854 84.7412C239.482 84.9847 239.228 85.3499 239.092 85.8369C238.963 86.3239 238.895 86.9648 238.888 87.7598H249.351V86.7285C249.351 86.2129 249.29 85.7868 249.168 85.4502C249.053 85.1064 248.824 84.8379 248.48 84.6445C248.137 84.444 247.628 84.3044 246.955 84.2256C246.289 84.1468 245.405 84.1074 244.302 84.1074Z" fill="#0076C0"/>
</svg>
